<mxfile host="app.diagrams.net" agent="Mozilla/5.0 (Windows NT 10.0; Win64; x64) AppleWebKit/537.36 (KHTML, like Gecko) Chrome/135.0.0.0 Safari/537.36" version="26.2.12">
  <diagram name="Page-1" id="4jxqbtf2JzqQgOwTOPA3">
    <mxGraphModel dx="3454" dy="2672" grid="1" gridSize="10" guides="1" tooltips="1" connect="1" arrows="1" fold="1" page="1" pageScale="1" pageWidth="827" pageHeight="1169" math="0" shadow="0">
      <root>
        <mxCell id="0" />
        <mxCell id="1" parent="0" />
        <mxCell id="IPSiDlVQHd2N15RNVOKr-1" value="" style="rounded=1;whiteSpace=wrap;html=1;" parent="1" vertex="1">
          <mxGeometry x="477" y="-60" width="350" height="60" as="geometry" />
        </mxCell>
        <mxCell id="IPSiDlVQHd2N15RNVOKr-2" value="SMART VITALS" style="text;html=1;align=center;verticalAlign=middle;whiteSpace=wrap;rounded=0;" parent="1" vertex="1">
          <mxGeometry x="569" y="-42.5" width="166" height="25" as="geometry" />
        </mxCell>
        <mxCell id="IPSiDlVQHd2N15RNVOKr-4" value="" style="ellipse;whiteSpace=wrap;html=1;" parent="1" vertex="1">
          <mxGeometry x="75" y="240" width="165" height="95" as="geometry" />
        </mxCell>
        <mxCell id="IPSiDlVQHd2N15RNVOKr-5" value="turns the device on via on/off button" style="text;html=1;align=center;verticalAlign=middle;whiteSpace=wrap;rounded=0;" parent="1" vertex="1">
          <mxGeometry x="100" y="262.5" width="125" height="50" as="geometry" />
        </mxCell>
        <mxCell id="IPSiDlVQHd2N15RNVOKr-6" value="" style="ellipse;whiteSpace=wrap;html=1;" parent="1" vertex="1">
          <mxGeometry x="390" y="709" width="160" height="90" as="geometry" />
        </mxCell>
        <mxCell id="IPSiDlVQHd2N15RNVOKr-7" value="Logs in via Mobile App" style="text;html=1;align=center;verticalAlign=middle;whiteSpace=wrap;rounded=0;" parent="1" vertex="1">
          <mxGeometry x="420" y="739" width="100" height="30" as="geometry" />
        </mxCell>
        <mxCell id="IPSiDlVQHd2N15RNVOKr-8" value="" style="ellipse;whiteSpace=wrap;html=1;" parent="1" vertex="1">
          <mxGeometry x="75" y="704" width="175" height="95" as="geometry" />
        </mxCell>
        <mxCell id="IPSiDlVQHd2N15RNVOKr-9" value="registers to create new account via Mobile App" style="text;html=1;align=center;verticalAlign=middle;whiteSpace=wrap;rounded=0;" parent="1" vertex="1">
          <mxGeometry x="92.5" y="736.5" width="140" height="30" as="geometry" />
        </mxCell>
        <mxCell id="hp9z3i9K4szWqjxerfGI-15" style="edgeStyle=orthogonalEdgeStyle;rounded=0;orthogonalLoop=1;jettySize=auto;html=1;exitX=1;exitY=0.5;exitDx=0;exitDy=0;entryX=0;entryY=0.5;entryDx=0;entryDy=0;" edge="1" parent="1" source="IPSiDlVQHd2N15RNVOKr-10" target="IPSiDlVQHd2N15RNVOKr-18">
          <mxGeometry relative="1" as="geometry" />
        </mxCell>
        <mxCell id="IPSiDlVQHd2N15RNVOKr-10" value="" style="ellipse;whiteSpace=wrap;html=1;" parent="1" vertex="1">
          <mxGeometry x="400" y="90" width="140" height="90" as="geometry" />
        </mxCell>
        <mxCell id="IPSiDlVQHd2N15RNVOKr-11" value="presses button to activate temperature reading" style="text;html=1;align=center;verticalAlign=middle;whiteSpace=wrap;rounded=0;" parent="1" vertex="1">
          <mxGeometry x="420" y="117.5" width="100" height="35" as="geometry" />
        </mxCell>
        <mxCell id="IPSiDlVQHd2N15RNVOKr-12" value="" style="ellipse;whiteSpace=wrap;html=1;" parent="1" vertex="1">
          <mxGeometry x="400" y="390" width="150" height="90" as="geometry" />
        </mxCell>
        <mxCell id="IPSiDlVQHd2N15RNVOKr-14" value="" style="ellipse;whiteSpace=wrap;html=1;" parent="1" vertex="1">
          <mxGeometry x="410" y="245" width="140" height="90" as="geometry" />
        </mxCell>
        <mxCell id="IPSiDlVQHd2N15RNVOKr-13" value="presses button to activate&amp;nbsp;&lt;div&gt;ECG reading&lt;/div&gt;" style="text;html=1;align=center;verticalAlign=middle;whiteSpace=wrap;rounded=0;" parent="1" vertex="1">
          <mxGeometry x="420" y="270" width="120" height="35" as="geometry" />
        </mxCell>
        <mxCell id="hp9z3i9K4szWqjxerfGI-17" style="edgeStyle=orthogonalEdgeStyle;rounded=0;orthogonalLoop=1;jettySize=auto;html=1;exitX=1;exitY=0.5;exitDx=0;exitDy=0;entryX=0;entryY=0.5;entryDx=0;entryDy=0;" edge="1" parent="1" source="IPSiDlVQHd2N15RNVOKr-16" target="IPSiDlVQHd2N15RNVOKr-19">
          <mxGeometry relative="1" as="geometry" />
        </mxCell>
        <mxCell id="IPSiDlVQHd2N15RNVOKr-16" value="presses button to activate Heart rate, SpO2, and Blood Pressure reading" style="text;html=1;align=center;verticalAlign=middle;whiteSpace=wrap;rounded=0;" parent="1" vertex="1">
          <mxGeometry x="400" y="400" width="150" height="70" as="geometry" />
        </mxCell>
        <mxCell id="IPSiDlVQHd2N15RNVOKr-17" value="" style="ellipse;whiteSpace=wrap;html=1;" parent="1" vertex="1">
          <mxGeometry x="650" y="227.5" width="150" height="92.5" as="geometry" />
        </mxCell>
        <mxCell id="IPSiDlVQHd2N15RNVOKr-18" value="" style="ellipse;whiteSpace=wrap;html=1;" parent="1" vertex="1">
          <mxGeometry x="650" y="90" width="150" height="90" as="geometry" />
        </mxCell>
        <mxCell id="IPSiDlVQHd2N15RNVOKr-19" value="" style="ellipse;whiteSpace=wrap;html=1;" parent="1" vertex="1">
          <mxGeometry x="650" y="390" width="150" height="90" as="geometry" />
        </mxCell>
        <mxCell id="IPSiDlVQHd2N15RNVOKr-20" value="places the ECG patch&amp;nbsp;" style="text;html=1;align=center;verticalAlign=middle;whiteSpace=wrap;rounded=0;" parent="1" vertex="1">
          <mxGeometry x="675" y="257.5" width="100" height="30" as="geometry" />
        </mxCell>
        <mxCell id="IPSiDlVQHd2N15RNVOKr-21" value="places the temperature&amp;nbsp; on the mouth" style="text;html=1;align=center;verticalAlign=middle;whiteSpace=wrap;rounded=0;" parent="1" vertex="1">
          <mxGeometry x="663" y="120" width="124" height="30" as="geometry" />
        </mxCell>
        <mxCell id="IPSiDlVQHd2N15RNVOKr-22" value="places the finger on sensor" style="text;html=1;align=center;verticalAlign=middle;whiteSpace=wrap;rounded=0;" parent="1" vertex="1">
          <mxGeometry x="675" y="420" width="100" height="30" as="geometry" />
        </mxCell>
        <mxCell id="IPSiDlVQHd2N15RNVOKr-23" value="" style="ellipse;whiteSpace=wrap;html=1;" parent="1" vertex="1">
          <mxGeometry x="910" y="230" width="153" height="92.5" as="geometry" />
        </mxCell>
        <mxCell id="IPSiDlVQHd2N15RNVOKr-25" value="views the reading via OLED" style="text;html=1;align=center;verticalAlign=middle;whiteSpace=wrap;rounded=0;" parent="1" vertex="1">
          <mxGeometry x="932.5" y="257.5" width="108" height="37.5" as="geometry" />
        </mxCell>
        <mxCell id="IPSiDlVQHd2N15RNVOKr-28" value="" style="ellipse;whiteSpace=wrap;html=1;" parent="1" vertex="1">
          <mxGeometry x="650" y="550" width="160" height="90" as="geometry" />
        </mxCell>
        <mxCell id="IPSiDlVQHd2N15RNVOKr-29" value="can view user profile" style="text;html=1;align=center;verticalAlign=middle;whiteSpace=wrap;rounded=0;" parent="1" vertex="1">
          <mxGeometry x="688" y="580" width="85" height="30" as="geometry" />
        </mxCell>
        <mxCell id="IPSiDlVQHd2N15RNVOKr-35" value="" style="ellipse;whiteSpace=wrap;html=1;" parent="1" vertex="1">
          <mxGeometry x="650" y="800" width="161" height="90" as="geometry" />
        </mxCell>
        <mxCell id="IPSiDlVQHd2N15RNVOKr-36" value="can view the measurement logs" style="text;html=1;align=center;verticalAlign=middle;whiteSpace=wrap;rounded=0;" parent="1" vertex="1">
          <mxGeometry x="670.5" y="830" width="120" height="30" as="geometry" />
        </mxCell>
        <mxCell id="IPSiDlVQHd2N15RNVOKr-37" value="" style="ellipse;whiteSpace=wrap;html=1;" parent="1" vertex="1">
          <mxGeometry x="650" y="925" width="161" height="90" as="geometry" />
        </mxCell>
        <mxCell id="IPSiDlVQHd2N15RNVOKr-38" value="logs out" style="text;html=1;align=center;verticalAlign=middle;whiteSpace=wrap;rounded=0;" parent="1" vertex="1">
          <mxGeometry x="695" y="955" width="60" height="30" as="geometry" />
        </mxCell>
        <mxCell id="IPSiDlVQHd2N15RNVOKr-39" value="" style="ellipse;whiteSpace=wrap;html=1;" parent="1" vertex="1">
          <mxGeometry x="901.5" y="665" width="170" height="85" as="geometry" />
        </mxCell>
        <mxCell id="IPSiDlVQHd2N15RNVOKr-40" value="gets alert for unusual readings" style="text;html=1;align=center;verticalAlign=middle;whiteSpace=wrap;rounded=0;" parent="1" vertex="1">
          <mxGeometry x="934" y="692.5" width="105" height="30" as="geometry" />
        </mxCell>
        <mxCell id="IPSiDlVQHd2N15RNVOKr-41" value="" style="ellipse;whiteSpace=wrap;html=1;" parent="1" vertex="1">
          <mxGeometry x="1140" y="211.25" width="220" height="130" as="geometry" />
        </mxCell>
        <mxCell id="IPSiDlVQHd2N15RNVOKr-42" value="presses button to deactivate Heart rate, SpO2,&amp;nbsp; Blood Pressure and ECG reading" style="text;html=1;align=center;verticalAlign=middle;whiteSpace=wrap;rounded=0;" parent="1" vertex="1">
          <mxGeometry x="1167.5" y="250" width="165" height="52.5" as="geometry" />
        </mxCell>
        <mxCell id="IPSiDlVQHd2N15RNVOKr-46" value="" style="ellipse;whiteSpace=wrap;html=1;" parent="1" vertex="1">
          <mxGeometry x="1450" y="145.63" width="170" height="97.5" as="geometry" />
        </mxCell>
        <mxCell id="IPSiDlVQHd2N15RNVOKr-47" value="presses another button to get different reading&amp;nbsp;" style="text;html=1;align=center;verticalAlign=middle;whiteSpace=wrap;rounded=0;" parent="1" vertex="1">
          <mxGeometry x="1470" y="178.13" width="130" height="31.25" as="geometry" />
        </mxCell>
        <mxCell id="hp9z3i9K4szWqjxerfGI-6" style="edgeStyle=orthogonalEdgeStyle;rounded=0;orthogonalLoop=1;jettySize=auto;html=1;exitX=1;exitY=0.5;exitDx=0;exitDy=0;entryX=0.006;entryY=0.48;entryDx=0;entryDy=0;entryPerimeter=0;" edge="1" parent="1" source="IPSiDlVQHd2N15RNVOKr-48" target="hp9z3i9K4szWqjxerfGI-1">
          <mxGeometry relative="1" as="geometry">
            <Array as="points">
              <mxPoint x="-30" y="506" />
            </Array>
          </mxGeometry>
        </mxCell>
        <mxCell id="IPSiDlVQHd2N15RNVOKr-48" value="" style="rounded=1;whiteSpace=wrap;html=1;" parent="1" vertex="1">
          <mxGeometry x="-210" y="461.25" width="180" height="80" as="geometry" />
        </mxCell>
        <mxCell id="IPSiDlVQHd2N15RNVOKr-50" value="USER" style="text;html=1;align=center;verticalAlign=middle;whiteSpace=wrap;rounded=0;" parent="1" vertex="1">
          <mxGeometry x="-150" y="484.5" width="60" height="30" as="geometry" />
        </mxCell>
        <mxCell id="IPSiDlVQHd2N15RNVOKr-51" value="" style="ellipse;whiteSpace=wrap;html=1;" parent="1" vertex="1">
          <mxGeometry x="650" y="670" width="160" height="90" as="geometry" />
        </mxCell>
        <mxCell id="IPSiDlVQHd2N15RNVOKr-52" value="can view sensor readings" style="text;html=1;align=center;verticalAlign=middle;whiteSpace=wrap;rounded=0;" parent="1" vertex="1">
          <mxGeometry x="685.5" y="700" width="90" height="30" as="geometry" />
        </mxCell>
        <mxCell id="hp9z3i9K4szWqjxerfGI-1" value="" style="ellipse;whiteSpace=wrap;html=1;" vertex="1" parent="1">
          <mxGeometry x="72.5" y="461.25" width="170" height="93" as="geometry" />
        </mxCell>
        <mxCell id="hp9z3i9K4szWqjxerfGI-2" value="can charge the battery via USB cable" style="text;html=1;align=center;verticalAlign=middle;whiteSpace=wrap;rounded=0;" vertex="1" parent="1">
          <mxGeometry x="82.5" y="493.25" width="150" height="30" as="geometry" />
        </mxCell>
        <mxCell id="hp9z3i9K4szWqjxerfGI-3" value="" style="ellipse;whiteSpace=wrap;html=1;" vertex="1" parent="1">
          <mxGeometry x="1450" y="304.38" width="170" height="97.5" as="geometry" />
        </mxCell>
        <mxCell id="hp9z3i9K4szWqjxerfGI-4" value="turns the device off&amp;nbsp; via on/off button" style="text;html=1;align=center;verticalAlign=middle;whiteSpace=wrap;rounded=0;" vertex="1" parent="1">
          <mxGeometry x="1470" y="343.13" width="130" height="25" as="geometry" />
        </mxCell>
        <mxCell id="hp9z3i9K4szWqjxerfGI-12" style="edgeStyle=orthogonalEdgeStyle;rounded=0;orthogonalLoop=1;jettySize=auto;html=1;exitX=1;exitY=0.5;exitDx=0;exitDy=0;entryX=-0.005;entryY=0.471;entryDx=0;entryDy=0;entryPerimeter=0;" edge="1" parent="1" source="IPSiDlVQHd2N15RNVOKr-4" target="IPSiDlVQHd2N15RNVOKr-14">
          <mxGeometry relative="1" as="geometry" />
        </mxCell>
        <mxCell id="hp9z3i9K4szWqjxerfGI-22" value="" style="endArrow=classic;html=1;rounded=0;exitX=1;exitY=0.5;exitDx=0;exitDy=0;entryX=0;entryY=0.5;entryDx=0;entryDy=0;" edge="1" parent="1" source="IPSiDlVQHd2N15RNVOKr-17" target="IPSiDlVQHd2N15RNVOKr-23">
          <mxGeometry width="50" height="50" relative="1" as="geometry">
            <mxPoint x="900" y="580" as="sourcePoint" />
            <mxPoint x="950" y="530" as="targetPoint" />
          </mxGeometry>
        </mxCell>
        <mxCell id="hp9z3i9K4szWqjxerfGI-23" value="" style="endArrow=classic;html=1;rounded=0;exitX=1;exitY=0.5;exitDx=0;exitDy=0;entryX=0.548;entryY=1.002;entryDx=0;entryDy=0;entryPerimeter=0;" edge="1" parent="1" source="IPSiDlVQHd2N15RNVOKr-19" target="IPSiDlVQHd2N15RNVOKr-23">
          <mxGeometry width="50" height="50" relative="1" as="geometry">
            <mxPoint x="890" y="410" as="sourcePoint" />
            <mxPoint x="940" y="360" as="targetPoint" />
          </mxGeometry>
        </mxCell>
        <mxCell id="hp9z3i9K4szWqjxerfGI-24" value="" style="endArrow=classic;html=1;rounded=0;exitX=1;exitY=0.5;exitDx=0;exitDy=0;entryX=0.5;entryY=0;entryDx=0;entryDy=0;" edge="1" parent="1" source="IPSiDlVQHd2N15RNVOKr-18" target="IPSiDlVQHd2N15RNVOKr-23">
          <mxGeometry width="50" height="50" relative="1" as="geometry">
            <mxPoint x="850" y="190" as="sourcePoint" />
            <mxPoint x="900" y="140" as="targetPoint" />
          </mxGeometry>
        </mxCell>
        <mxCell id="hp9z3i9K4szWqjxerfGI-25" value="" style="endArrow=classic;html=1;rounded=0;entryX=0.016;entryY=0.649;entryDx=0;entryDy=0;entryPerimeter=0;" edge="1" parent="1" target="IPSiDlVQHd2N15RNVOKr-17">
          <mxGeometry width="50" height="50" relative="1" as="geometry">
            <mxPoint x="550" y="290" as="sourcePoint" />
            <mxPoint x="630" y="270" as="targetPoint" />
          </mxGeometry>
        </mxCell>
        <mxCell id="hp9z3i9K4szWqjxerfGI-26" value="" style="endArrow=classic;html=1;rounded=0;exitX=1;exitY=0.5;exitDx=0;exitDy=0;entryX=0;entryY=0.5;entryDx=0;entryDy=0;" edge="1" parent="1" source="IPSiDlVQHd2N15RNVOKr-23" target="IPSiDlVQHd2N15RNVOKr-41">
          <mxGeometry width="50" height="50" relative="1" as="geometry">
            <mxPoint x="1090" y="320" as="sourcePoint" />
            <mxPoint x="1140" y="270" as="targetPoint" />
          </mxGeometry>
        </mxCell>
        <mxCell id="hp9z3i9K4szWqjxerfGI-27" value="" style="endArrow=classic;html=1;rounded=0;exitX=1;exitY=0;exitDx=0;exitDy=0;" edge="1" parent="1" source="IPSiDlVQHd2N15RNVOKr-41">
          <mxGeometry width="50" height="50" relative="1" as="geometry">
            <mxPoint x="1400" y="240" as="sourcePoint" />
            <mxPoint x="1450" y="190" as="targetPoint" />
          </mxGeometry>
        </mxCell>
        <mxCell id="hp9z3i9K4szWqjxerfGI-28" value="" style="endArrow=classic;html=1;rounded=0;exitX=1;exitY=1;exitDx=0;exitDy=0;entryX=0;entryY=0.5;entryDx=0;entryDy=0;" edge="1" parent="1" source="IPSiDlVQHd2N15RNVOKr-41" target="hp9z3i9K4szWqjxerfGI-3">
          <mxGeometry width="50" height="50" relative="1" as="geometry">
            <mxPoint x="1400" y="380" as="sourcePoint" />
            <mxPoint x="1450" y="330" as="targetPoint" />
          </mxGeometry>
        </mxCell>
        <mxCell id="hp9z3i9K4szWqjxerfGI-29" value="" style="endArrow=classic;html=1;rounded=0;entryX=0;entryY=0.5;entryDx=0;entryDy=0;" edge="1" parent="1" target="IPSiDlVQHd2N15RNVOKr-10">
          <mxGeometry width="50" height="50" relative="1" as="geometry">
            <mxPoint x="160" y="240" as="sourcePoint" />
            <mxPoint x="210" y="190" as="targetPoint" />
          </mxGeometry>
        </mxCell>
        <mxCell id="hp9z3i9K4szWqjxerfGI-30" value="" style="endArrow=classic;html=1;rounded=0;entryX=0;entryY=0.5;entryDx=0;entryDy=0;exitX=0.425;exitY=0.991;exitDx=0;exitDy=0;exitPerimeter=0;" edge="1" parent="1" source="IPSiDlVQHd2N15RNVOKr-4" target="IPSiDlVQHd2N15RNVOKr-16">
          <mxGeometry width="50" height="50" relative="1" as="geometry">
            <mxPoint x="160" y="480" as="sourcePoint" />
            <mxPoint x="400" y="375" as="targetPoint" />
          </mxGeometry>
        </mxCell>
        <mxCell id="hp9z3i9K4szWqjxerfGI-31" value="" style="endArrow=classic;html=1;rounded=0;entryX=0;entryY=0.5;entryDx=0;entryDy=0;" edge="1" parent="1">
          <mxGeometry width="50" height="50" relative="1" as="geometry">
            <mxPoint x="-120" y="460" as="sourcePoint" />
            <mxPoint x="75" y="287.5" as="targetPoint" />
          </mxGeometry>
        </mxCell>
        <mxCell id="hp9z3i9K4szWqjxerfGI-32" value="" style="endArrow=classic;html=1;rounded=0;exitX=0.389;exitY=0.984;exitDx=0;exitDy=0;exitPerimeter=0;" edge="1" parent="1" source="IPSiDlVQHd2N15RNVOKr-48" target="IPSiDlVQHd2N15RNVOKr-8">
          <mxGeometry width="50" height="50" relative="1" as="geometry">
            <mxPoint x="-230" y="750" as="sourcePoint" />
            <mxPoint x="10" y="645" as="targetPoint" />
          </mxGeometry>
        </mxCell>
        <mxCell id="hp9z3i9K4szWqjxerfGI-34" value="" style="endArrow=classic;html=1;rounded=0;exitX=1;exitY=0.5;exitDx=0;exitDy=0;" edge="1" parent="1" source="IPSiDlVQHd2N15RNVOKr-8">
          <mxGeometry width="50" height="50" relative="1" as="geometry">
            <mxPoint x="340" y="800" as="sourcePoint" />
            <mxPoint x="390" y="750" as="targetPoint" />
          </mxGeometry>
        </mxCell>
        <mxCell id="hp9z3i9K4szWqjxerfGI-35" value="" style="endArrow=classic;html=1;rounded=0;exitX=0.975;exitY=0.977;exitDx=0;exitDy=0;entryX=0;entryY=0;entryDx=0;entryDy=0;exitPerimeter=0;" edge="1" parent="1" source="IPSiDlVQHd2N15RNVOKr-48" target="IPSiDlVQHd2N15RNVOKr-6">
          <mxGeometry width="50" height="50" relative="1" as="geometry">
            <mxPoint x="240" y="680" as="sourcePoint" />
            <mxPoint x="290" y="630" as="targetPoint" />
          </mxGeometry>
        </mxCell>
        <mxCell id="hp9z3i9K4szWqjxerfGI-36" value="" style="endArrow=classic;html=1;rounded=0;entryX=0.028;entryY=0.756;entryDx=0;entryDy=0;entryPerimeter=0;" edge="1" parent="1" target="IPSiDlVQHd2N15RNVOKr-28">
          <mxGeometry width="50" height="50" relative="1" as="geometry">
            <mxPoint x="490" y="710" as="sourcePoint" />
            <mxPoint x="540" y="660" as="targetPoint" />
          </mxGeometry>
        </mxCell>
        <mxCell id="hp9z3i9K4szWqjxerfGI-37" value="" style="endArrow=classic;html=1;rounded=0;entryX=0;entryY=0.5;entryDx=0;entryDy=0;exitX=1;exitY=0;exitDx=0;exitDy=0;" edge="1" parent="1" source="IPSiDlVQHd2N15RNVOKr-6" target="IPSiDlVQHd2N15RNVOKr-51">
          <mxGeometry width="50" height="50" relative="1" as="geometry">
            <mxPoint x="550" y="750" as="sourcePoint" />
            <mxPoint x="600" y="700" as="targetPoint" />
          </mxGeometry>
        </mxCell>
        <mxCell id="hp9z3i9K4szWqjxerfGI-38" value="" style="endArrow=classic;html=1;rounded=0;entryX=0;entryY=0.5;entryDx=0;entryDy=0;exitX=1;exitY=1;exitDx=0;exitDy=0;" edge="1" parent="1" source="IPSiDlVQHd2N15RNVOKr-6" target="IPSiDlVQHd2N15RNVOKr-35">
          <mxGeometry width="50" height="50" relative="1" as="geometry">
            <mxPoint x="560" y="860" as="sourcePoint" />
            <mxPoint x="610" y="810" as="targetPoint" />
          </mxGeometry>
        </mxCell>
        <mxCell id="hp9z3i9K4szWqjxerfGI-39" value="" style="endArrow=classic;html=1;rounded=0;entryX=0;entryY=0.5;entryDx=0;entryDy=0;exitX=0.5;exitY=1;exitDx=0;exitDy=0;" edge="1" parent="1" source="IPSiDlVQHd2N15RNVOKr-6" target="IPSiDlVQHd2N15RNVOKr-37">
          <mxGeometry width="50" height="50" relative="1" as="geometry">
            <mxPoint x="470" y="910" as="sourcePoint" />
            <mxPoint x="520" y="860" as="targetPoint" />
          </mxGeometry>
        </mxCell>
        <mxCell id="hp9z3i9K4szWqjxerfGI-40" value="" style="endArrow=classic;html=1;rounded=0;entryX=0;entryY=0.5;entryDx=0;entryDy=0;" edge="1" parent="1" target="IPSiDlVQHd2N15RNVOKr-39">
          <mxGeometry width="50" height="50" relative="1" as="geometry">
            <mxPoint x="810" y="708" as="sourcePoint" />
            <mxPoint x="860" y="670" as="targetPoint" />
          </mxGeometry>
        </mxCell>
      </root>
    </mxGraphModel>
  </diagram>
</mxfile>
